<?xml version="1.0"?>

<!-- Generator: Adobe Illustrator 18.1.1, SVG Export Plug-In . SVG Version: 6.00 Build 0)  -->
<svg version="1.1" id="svg1973" xmlns:svg="http://www.w3.org/2000/svg" xmlns="http://www.w3.org/2000/svg" xmlns:xlink="http://www.w3.org/1999/xlink" x="0px" y="0px" viewBox="-284 32.9 389.8 496.1" enable-background="new -284 32.9 389.8 496.1" xml:space="preserve" width="389.8" height="496.1">
<path id="path7445" fill="#FFFFFF" d="M-89.1,50.6c-8.1,0-16.1,1.7-23.2,4.8c-7.2,3-13,6.7-18.4,12c-5.3,5.3-9.7,12.1-12.8,19.2
	c-3,7.2-4.8,14.3-4.8,22.4c0,8.1,1.8,16.1,4.8,23.2c3.1,7.1,7.5,13.1,12.8,18.4c5.4,5.4,11.2,9.7,18.4,12.8c7.2,3,15.1,4.8,23.2,4.8
	c8.2,0,16.1-1.8,23.2-4.8c7.1-3.1,13.1-7.5,18.4-12.8c5.3-5.3,9.7-11.3,12.8-18.4c3-7.2,4.8-15.1,4.8-23.2c0-8.1-1.8-15.3-4.8-22.4
	c-3.1-7.1-7.5-13.9-12.8-19.2c-5.3-5.3-11.3-9-18.4-12C-73.1,52.3-80.9,50.6-89.1,50.6z M-207.7,204.5c-8.1,0-15.3,0.9-22.4,4
	c-7.2,3.1-13.9,7.5-19.2,12.8c-5.3,5.3-9,12-12,19.2c-3.1,7.1-4.8,14.3-4.8,22.4v129.8H5.4v36.1h-271.6v6.4V452
	c0,8.2,1.7,16.1,4.8,23.2c3,7.2,6.7,13.1,12,18.4c5.4,5.3,12,9.7,19.2,12.8c7.2,3.1,14.3,4.8,22.4,4.8H29.5c8.1,0,15.3-1.7,22.4-4.8
	c7.2-3.1,13.9-7.5,19.2-12.8c5.4-5.4,9.7-11.2,12.8-18.4s4-15.1,4-23.2v-16.8v-113h-271.6V287H87.9v-24c0-8.1-0.9-15.3-4-22.4
	c-3.1-7.2-7.5-13.9-12.8-19.2c-5.3-5.3-12-9.7-19.2-12.8c-7.2-3.1-14.3-4-22.4-4H-207.7L-207.7,204.5z"></path>
</svg>
